<?xml version="1.0" encoding="utf-8"?>
<!-- Generator: Adobe Illustrator 19.0.0, SVG Export Plug-In . SVG Version: 6.00 Build 0)  -->
<svg version="1.1" id="Layer_1" xmlns="http://www.w3.org/2000/svg" xmlns:xlink="http://www.w3.org/1999/xlink" x="0px" y="0px"
	 width="80px" height="60px" viewBox="40.6 -14.2 80 60" style="enable-background:new 40.6 -14.2 80 60;" xml:space="preserve">
<g>
	<circle cx="90.2" cy="0.6" r="1.6"/>
	<circle cx="90.2" cy="13.4" r="1.6"/>
	<path d="M42.6,38.8c0,0.6,0.4,1,1,1h29.7c0.6,0,1-0.4,1-1V18.5H86h8.4c0.6,0,1-0.4,1-1v-3.2h3.2h17c1.7,0,3.1-1.4,3.1-3.1
		c0-0.8-0.3-1.5-0.8-2.1c0.5-0.5,0.8-1.3,0.8-2.1s-0.3-1.5-0.8-2.1c0.5-0.5,0.8-1.3,0.8-2.1s-0.3-1.5-0.8-2.1
		c0.5-0.5,0.8-1.3,0.8-2.1c0-1.7-1.4-3.1-3.1-3.1h-4.1l-4.4-3c-2-1.4-4.8-1.1-6.5,0.6L98-4.3l-2.5,2.5v-1.8c0-0.6-0.4-1-1-1H86H73.2
		H43.5c-0.6,0-1,0.4-1,1c0,0.6,0.4,1,1,1h28.7v20.2v20.2H43.6C43,37.8,42.6,38.2,42.6,38.8z M95.5,1.3l4-4l2.6-2.6
		c1.1-1.1,2.8-1.2,4-0.4l1.9,1.3h-3c-0.6,0-1,0.4-1,1c0,0.6,0.4,1,1,1h10.7c0.6,0,1.1,0.5,1.1,1.1c0,0.6-0.5,1.1-1.1,1.1h-4.2
		c-0.6,0-1,0.4-1,1s0.4,1,1,1h4.2c0.6,0,1.1,0.5,1.1,1.1c0,0.6-0.5,1.1-1.1,1.1h-4.2c-0.6,0-1,0.4-1,1c0,0.6,0.4,1,1,1h4.2
		c0.6,0,1.1,0.5,1.1,1.1c0,0.6-0.5,1.1-1.1,1.1h-4.2c-0.6,0-1,0.4-1,1c0,0.6,0.4,1,1,1h4.2c0.6,0,1.1,0.5,1.1,1.1s-0.5,1.1-1.1,1.1
		h-17h-3.2V1.3z M87-2.6h6.5v19.2H87V-2.6z M74.3,16.6V-2.6H85v19.2H74.3z"/>
</g>
</svg>
